<svg width="125" height="101" viewBox="0 0 125 101" fill="none" xmlns="http://www.w3.org/2000/svg">
<g clip-path="url(#clip0_25_2)">
<path d="M78.8585 27.8351H82.6504L93.453 17.0324L93.9843 12.4488C73.8843 -5.29168 43.2004 -3.38013 25.4599 16.7199C20.5273 22.3035 16.949 28.9445 15.001 36.1324C16.2042 35.6376 17.5376 35.5594 18.7928 35.9032L40.3929 32.3405C40.3929 32.3405 41.492 30.5227 42.0597 30.6373C51.6696 20.0847 67.8423 18.8554 78.9366 27.8351H78.8585Z" fill="#EA4335"/>
<path d="M108.839 36.1324C106.355 26.9913 101.261 18.7721 94.1718 12.4854L79.0147 27.6424C85.4161 32.8718 89.0621 40.7525 88.9059 49.0185V51.7114C96.3594 51.7114 102.396 57.7533 102.396 65.2016C102.396 72.6552 96.3542 78.6919 88.9059 78.6919H61.9201L59.2273 81.4212V97.6044L61.9201 100.297H88.9059C104.375 100.417 118.1 90.3905 122.694 75.6189C127.278 60.842 121.652 44.7995 108.839 36.1324Z" fill="#4285F4"/>
<path d="M34.8978 100.146H61.8836V78.5459H34.8978C32.9758 78.5459 31.0747 78.1344 29.3246 77.3323L25.5328 78.5042L14.6572 89.3069L13.7092 93.0987C19.8085 97.7031 27.2516 100.177 34.8978 100.146Z" fill="#34A853"/>
<path d="M34.8979 30.0695C19.9076 30.1581 6.63083 39.7575 1.84933 53.9614C-2.93217 68.1652 1.8337 83.8431 13.7145 92.979L29.3664 77.3272C22.5744 74.2593 19.5586 66.2693 22.6265 59.4773C25.6943 52.6853 33.6843 49.6695 40.4764 52.7374C43.4661 54.0916 45.8621 56.4875 47.2163 59.4773L62.8682 43.8254C56.2063 35.1219 45.8568 30.0331 34.8979 30.0695Z" fill="#FBBC05"/>
</g>
<defs>
<clipPath id="clip0_25_2">
<rect width="124.262" height="100" fill="white" transform="translate(0.0107422 0.297119)"/>
</clipPath>
</defs>
</svg>
