<svg width="100" height="100" viewBox="0 0 100 100" fill="none" xmlns="http://www.w3.org/2000/svg">
<path d="M89.5728 19.4398C83.5282 11.6125 75.2981 5.7535 65.9235 2.60386C56.5488 -0.545776 46.4507 -0.844592 36.9062 1.7452C27.3617 4.335 18.7996 9.69708 12.3027 17.1533C5.80588 24.6095 1.66609 33.8249 0.406949 43.634C-0.852194 53.4431 0.825867 63.4053 5.2289 72.2607C9.63194 81.1161 16.5622 88.4668 25.1431 93.3833C33.7241 98.2997 43.5703 100.561 53.4365 99.8813C63.3027 99.2015 72.7457 95.6111 80.5713 89.5642C102.415 72.6831 106.446 41.2912 89.5712 19.4398H89.5728Z" fill="#FF6C37"/>
<path d="M66.8634 31.8584L45.7808 53.1083L39.8231 46.9833C60.5728 26.2335 62.6556 28.1085 66.8649 31.8584H66.8634Z" fill="white"/>
<path d="M45.781 53.6895C45.5942 53.6849 45.4159 53.6108 45.281 53.4817L39.281 47.4817C39.1459 47.3419 39.0704 47.1551 39.0704 46.9606C39.0704 46.7662 39.1459 46.5794 39.281 46.4395C59.7387 25.9819 62.5308 26.9397 67.3636 31.3147C67.4445 31.3794 67.5092 31.4621 67.5526 31.5562C67.596 31.6504 67.6169 31.7533 67.6136 31.8569C67.6448 32.06 67.5667 32.2678 67.4058 32.399L46.3232 53.4832C46.1753 53.6188 45.9815 53.693 45.781 53.691V53.6895ZM40.8638 46.9817L45.781 51.8989L65.7808 31.8991C65.0903 31.0337 64.1049 30.4532 63.0133 30.2687C61.9216 30.0842 60.8002 30.3086 59.8637 30.8991C56.2387 32.524 50.4059 37.4818 40.8638 46.9817Z" fill="#FF6C37"/>
<path d="M51.823 58.983L46.073 53.1081L67.1557 32.274C72.8229 37.8162 64.4057 47.066 51.823 58.9815V58.983Z" fill="white"/>
<path d="M51.8231 59.7332C51.6387 59.7185 51.4636 59.6458 51.3231 59.5254L45.4482 53.7754C45.3601 53.5618 45.3601 53.3219 45.4482 53.1082C45.3857 52.9329 45.3857 52.7414 45.4482 52.5661L66.5308 31.4835C66.6774 31.3457 66.871 31.269 67.0722 31.269C67.2734 31.269 67.467 31.3457 67.6136 31.4835C68.2964 32.1119 68.8358 32.88 69.1952 33.7355C69.5546 34.5909 69.7255 35.5138 69.6964 36.4413C69.6964 42.0662 63.2793 49.1489 52.3637 59.4832C52.2179 59.6275 52.026 59.716 51.8216 59.7332H51.8231ZM47.156 53.1082L51.8637 57.8144C60.1965 49.9395 68.1558 41.8146 68.1964 36.3147C68.2417 35.1487 67.8563 34.0069 67.1136 33.1069L47.156 53.1082Z" fill="#FF6C37"/>
<path d="M39.9888 47.1083L44.1559 51.2755C44.1825 51.2989 44.2038 51.3278 44.2184 51.3601C44.233 51.3924 44.2406 51.4275 44.2406 51.463C44.2406 51.4984 44.233 51.5335 44.2184 51.5658C44.2038 51.5982 44.1825 51.627 44.1559 51.6505L35.3638 53.5254C35.1864 53.5637 35.0012 53.543 34.8366 53.4664C34.672 53.3897 34.537 53.2614 34.4521 53.1009C34.3671 52.9405 34.337 52.7566 34.3662 52.5774C34.3954 52.3982 34.4824 52.2335 34.6139 52.1083L39.7388 47.0255C39.7388 47.0255 39.906 47.0255 39.9888 47.1083Z" fill="white"/>
<path d="M35.156 54.3583C34.8782 54.3548 34.6059 54.2801 34.3652 54.1415C34.1245 54.0028 33.9234 53.8047 33.781 53.5661C33.6208 53.2639 33.5627 52.918 33.6153 52.58C33.668 52.2421 33.8286 51.9302 34.0732 51.6911L39.1559 46.5662C39.3392 46.4023 39.5765 46.3118 39.8223 46.3118C40.0682 46.3118 40.3054 46.4023 40.4887 46.5662L44.6559 50.7333C44.9027 50.9677 44.9996 51.3224 44.9059 51.6505C44.8121 51.9786 44.5371 52.2396 44.1981 52.3177L35.406 54.1927L35.156 54.3583ZM39.8231 48.0255L35.1154 52.7333L42.9074 51.0661L39.8231 48.0255Z" fill="#FF6C37"/>
<path d="M78.073 20.1491C75.0573 17.2398 70.3198 17.1179 67.1573 19.8632C63.9948 22.6085 63.4541 27.321 65.9166 30.7116C68.3792 34.1021 73.0214 35.0521 76.6152 32.899L70.9479 27.2319L78.073 20.1491Z" fill="white"/>
<path d="M72.448 34.8147C70.7154 34.7925 69.0277 34.261 67.5951 33.2863C66.1626 32.3116 65.0485 30.9369 64.3917 29.3335C63.7354 27.7313 63.5633 25.9719 63.8965 24.2728C64.2298 22.5738 65.0538 21.0098 66.2667 19.7742C67.9349 18.1367 70.1791 17.2192 72.5167 17.2192C74.8543 17.2192 77.0986 18.1367 78.7667 19.7742C78.9261 19.9086 79.0167 20.107 79.0167 20.3164C79.0163 20.4194 78.9938 20.5211 78.9507 20.6147C78.9076 20.7082 78.8448 20.7914 78.7667 20.8586L72.0167 27.2335L77.1417 32.2757C77.2248 32.355 77.2871 32.4534 77.3233 32.5623C77.3596 32.6713 77.3686 32.7874 77.3495 32.9007C77.3372 33.0099 77.301 33.1151 77.2435 33.2088C77.186 33.3025 77.1086 33.3824 77.0167 33.4429C75.6399 34.3034 74.0571 34.7783 72.4339 34.8178L72.448 34.8147ZM72.448 18.6476C69.4792 18.6633 66.823 20.4492 65.7089 23.1789C64.5949 25.9085 65.2011 29.0507 67.2824 31.1476C68.3176 32.1888 69.6431 32.8931 71.0853 33.1683C72.5276 33.4435 74.0193 33.2767 75.3652 32.6897L70.448 27.7726C70.3698 27.7101 70.3067 27.6308 70.2633 27.5406C70.22 27.4504 70.1975 27.3516 70.1975 27.2515C70.1975 27.1514 70.22 27.0526 70.2633 26.9624C70.3067 26.8722 70.3698 26.7929 70.448 26.7304L76.948 20.1883C75.6559 19.198 74.0759 18.6565 72.448 18.6461V18.6476Z" fill="#FF6C37"/>
<path d="M78.1977 20.2742L71.0729 27.3569L76.7399 33.024C77.3103 32.6966 77.8414 32.305 78.3227 31.8568C79.808 30.2869 80.6252 28.2013 80.6019 26.0402C80.5786 23.8792 79.7165 21.8117 78.1977 20.2742Z" fill="white"/>
<path d="M76.6135 33.6491C76.5199 33.6541 76.4263 33.6381 76.3398 33.6021C76.2532 33.5661 76.1759 33.5112 76.1135 33.4412L70.4463 27.7741C70.3682 27.7116 70.3051 27.6323 70.2617 27.5421C70.2183 27.4519 70.1958 27.3531 70.1958 27.253C70.1958 27.1529 70.2183 27.0541 70.2617 26.9639C70.3051 26.8737 70.3682 26.7944 70.4463 26.7319L77.5291 19.7741C77.5975 19.671 77.6904 19.5864 77.7994 19.5279C77.9085 19.4693 78.0303 19.4387 78.1541 19.4387C78.2778 19.4387 78.3997 19.4693 78.5087 19.5279C78.6178 19.5864 78.7107 19.671 78.7791 19.7741C79.6106 20.5888 80.2711 21.5612 80.7221 22.6344C81.173 23.7076 81.4053 24.86 81.4053 26.0241C81.4053 27.1882 81.173 28.3406 80.7221 29.4138C80.2711 30.487 79.6106 31.4594 78.7791 32.2741C78.2886 32.7943 77.7274 33.243 77.1119 33.6069C76.9569 33.685 76.7778 33.7001 76.6119 33.6491H76.6135ZM72.0307 27.2335L76.7385 31.9413C77.0623 31.7143 77.3689 31.4636 77.6556 31.1913C79.0396 29.8111 79.8191 27.938 79.8228 25.9835C79.826 24.2343 79.1885 22.5446 78.0306 21.2335L72.0307 27.2335Z" fill="#FF6C37"/>
<path d="M67.7386 32.7334C67.1742 32.2034 66.4292 31.9084 65.655 31.9084C64.8808 31.9084 64.1358 32.2034 63.5714 32.7334L44.6981 51.5645L47.8231 54.7317L67.7808 37.2318C68.0851 36.9401 68.3265 36.5892 68.4902 36.2007C68.6538 35.8122 68.7362 35.3943 68.7322 34.9727C68.7283 34.5512 68.6381 34.1349 68.4672 33.7495C68.2963 33.3641 68.0483 33.0178 67.7386 32.7318V32.7334Z" fill="white"/>
<path d="M47.6559 55.4832C47.4692 55.4786 47.2909 55.4045 47.1559 55.2754L43.9888 52.1082C43.8537 51.9684 43.7782 51.7816 43.7782 51.5871C43.7782 51.3927 43.8537 51.2059 43.9888 51.066L62.8636 32.274C63.4073 31.731 64.1015 31.3639 64.8564 31.2202C65.6112 31.0765 66.3918 31.163 67.0969 31.4683C67.802 31.7736 68.3991 32.2837 68.8108 32.9325C69.2225 33.5813 69.4298 34.3388 69.4057 35.1068C69.3841 35.6281 69.2587 36.1398 69.0368 36.612C68.8149 37.0842 68.501 37.5074 68.1136 37.8568L48.1559 55.3566C48.0108 55.4594 47.8324 55.504 47.6559 55.4816V55.4832ZM45.4482 51.5645L47.5309 53.6895L67.1136 36.6474C67.598 36.2255 67.887 35.6224 67.9058 34.9802C67.9245 34.3381 67.6714 33.7099 67.198 33.2724C66.7608 32.8371 66.1689 32.5926 65.5519 32.5926C64.9349 32.5926 64.343 32.8371 63.9058 33.2724L45.4482 51.5645Z" fill="#FF6C37"/>
<path d="M30.0733 73.0237C30.02 73.0961 29.9913 73.1837 29.9913 73.2737C29.9913 73.3636 30.02 73.4512 30.0733 73.5237L30.9061 77.1487C30.9395 77.362 30.9079 77.5804 30.8153 77.7755C30.7228 77.9706 30.5737 78.1333 30.3874 78.2424C30.2017 78.351 29.9864 78.3979 29.7725 78.3762C29.5585 78.3546 29.3569 78.2656 29.1968 78.1221L23.489 72.6221L41.281 54.6895H47.4481L51.6152 58.8566C45.1149 64.54 37.8669 69.3067 30.0733 73.0237Z" fill="white"/>
<path d="M29.6983 79.1487C29.2264 79.1393 28.7608 78.9456 28.4483 78.6065L22.9905 73.1487C22.9124 73.0862 22.8492 73.0069 22.8059 72.9167C22.7625 72.8265 22.74 72.7277 22.74 72.6276C22.74 72.5276 22.7625 72.4287 22.8059 72.3385C22.8492 72.2483 22.9124 72.1691 22.9905 72.1066L40.906 54.1489C41.0063 54.0423 41.1374 53.9696 41.281 53.9411H47.4887C47.6505 53.8839 47.827 53.8839 47.9887 53.9411L52.1559 58.1082C52.2351 58.1813 52.2954 58.2725 52.3316 58.374C52.3678 58.4755 52.3788 58.5843 52.3637 58.691C52.3666 58.7946 52.3456 58.8974 52.3022 58.9914C52.2589 59.0855 52.1943 59.1682 52.1137 59.2332L51.7809 59.5254C45.2543 64.9665 38.0738 69.5713 30.4061 73.2331L31.1983 76.6081C31.2595 76.8684 31.2618 77.1392 31.2051 77.4005C31.1484 77.6619 31.034 77.9073 30.8704 78.1189C30.7068 78.3304 30.498 78.5028 30.2592 78.6234C30.0205 78.744 29.7579 78.8097 29.4905 78.8159L29.6983 79.1487ZM24.6155 72.6065L29.5311 77.5643C29.5769 77.6052 29.6361 77.6277 29.6975 77.6277C29.7589 77.6277 29.8181 77.6052 29.8639 77.5643C29.8945 77.5218 29.911 77.4707 29.911 77.4182C29.911 77.3658 29.8945 77.3147 29.8639 77.2721L29.0311 73.6472C28.9655 73.387 28.9918 73.1122 29.1058 72.8692C29.2197 72.6263 29.4141 72.4303 29.6561 72.3144C37.1176 68.7015 44.113 64.1962 50.4887 58.8973L47.0716 55.4801H41.4888L24.6155 72.6065Z" fill="#FF6C37"/>
<path d="M19.1984 76.8986L23.3655 72.7314L29.7827 79.1485L19.5749 78.4407C19.3997 78.427 19.2332 78.3583 19.0994 78.2443C18.9655 78.1304 18.871 77.9771 18.8295 77.8063C18.7879 77.6354 18.8013 77.4559 18.8678 77.2932C18.9344 77.1304 19.0506 76.9929 19.2 76.9001L19.1984 76.8986Z" fill="white"/>
<path d="M29.906 79.7736L19.739 79.0658C19.1359 79.0096 18.6171 78.5971 18.4046 78.0455C18.1921 77.4939 18.3218 76.8393 18.739 76.3986L22.9061 72.2315C23.046 72.0964 23.2328 72.0209 23.4272 72.0209C23.6216 72.0209 23.8085 72.0964 23.9483 72.2315L30.3232 78.6064C30.4115 78.7273 30.459 78.8732 30.459 79.0228C30.459 79.1725 30.4115 79.3183 30.3232 79.4392C30.2268 79.5951 30.0794 79.7127 29.906 79.7721V79.7736ZM19.739 77.4408L28.0717 77.983L23.4889 73.6908L19.739 77.4408Z" fill="#FF6C37"/>
<path d="M48.0308 55.1925L39.6138 56.4847L44.4887 51.652L48.0308 55.1925Z" fill="white"/>
<path d="M39.6138 57.2739C39.4739 57.2776 39.336 57.24 39.2174 57.1658C39.0987 57.0916 39.0046 56.9841 38.9466 56.8567C38.8579 56.736 38.8101 56.5901 38.8101 56.4403C38.8101 56.2905 38.8579 56.1446 38.9466 56.0239L43.7793 51.1489C43.9259 51.0111 44.1196 50.9344 44.3207 50.9344C44.5219 50.9344 44.7155 51.0111 44.8621 51.1489L48.4058 54.6895C48.4766 54.8018 48.5141 54.9318 48.5141 55.0645C48.5141 55.1973 48.4766 55.3273 48.4058 55.4395C48.371 55.5764 48.2976 55.7003 48.1942 55.7965C48.0909 55.8926 47.962 55.9569 47.823 55.9817L39.4904 57.2739H39.6138ZM44.4887 52.7317L41.7809 55.4395L46.448 54.7317L44.4887 52.7317Z" fill="#FF6C37"/>
<path d="M48.0309 55.1895L42.156 55.9396C41.9988 55.9752 41.8342 55.9593 41.6868 55.8941C41.5393 55.829 41.4168 55.718 41.3374 55.5777C41.2579 55.4374 41.2258 55.2753 41.2458 55.1153C41.2657 54.9553 41.3367 54.806 41.4482 54.6895L44.4903 51.6473L48.0309 55.1895Z" fill="white"/>
<path d="M41.9888 56.7333C41.7165 56.7307 41.4497 56.6561 41.2156 56.5169C40.9815 56.3778 40.7884 56.1791 40.656 55.9411C40.4969 55.6559 40.4352 55.3266 40.4803 55.0031C40.5254 54.6797 40.6749 54.3798 40.906 54.149L43.9482 51.1068C44.0948 50.969 44.2884 50.8923 44.4896 50.8923C44.6907 50.8923 44.8844 50.969 45.031 51.1068L48.5731 54.649C48.6785 54.7488 48.7526 54.877 48.7865 55.0181C48.8204 55.1592 48.8127 55.3071 48.7642 55.4439C48.7158 55.5806 48.6287 55.7004 48.5135 55.7887C48.3983 55.877 48.26 55.9299 48.1153 55.9411L42.2826 56.6911L41.9888 56.7333ZM41.9888 55.1912L46.406 54.649L44.4482 52.6912L41.9482 55.1912H41.9888ZM78.2385 25.0663C78.16 24.9349 78.036 24.8368 77.8899 24.7907C77.7439 24.7446 77.5861 24.7537 77.4463 24.8163C77.3773 24.8513 77.3161 24.8997 77.2662 24.9588C77.2162 25.0178 77.1787 25.0863 77.1557 25.1601C77.1093 25.3091 77.1239 25.4703 77.1963 25.6085C77.4885 26.2226 77.4072 26.9491 76.9885 27.4835C76.9365 27.535 76.8957 27.5967 76.8688 27.6648C76.8419 27.7328 76.8295 27.8057 76.8322 27.8788C76.8338 28.0254 76.8894 28.1662 76.9885 28.2741C77.0954 28.3164 77.2144 28.3164 77.3213 28.2741C77.4183 28.2985 77.5202 28.2958 77.6158 28.2664C77.7114 28.2369 77.7971 28.1817 77.8635 28.107C78.2066 27.6869 78.4239 27.1783 78.4902 26.64C78.5566 26.1017 78.4693 25.5556 78.2385 25.0648V25.0663Z" fill="#FF6C37"/>
</svg>
