<svg width="100" height="101" viewBox="0 0 100 101" fill="none" xmlns="http://www.w3.org/2000/svg">
<path d="M98.7616 15.6921L52.6448 99.5858C51.6926 101.318 49.2464 101.328 48.28 99.6045L1.249 15.6999C0.195944 13.8218 1.77476 11.5465 3.86707 11.9273L50.0333 20.3218C50.3278 20.3753 50.6294 20.3748 50.9237 20.3202L96.1243 11.939C98.2097 11.5524 99.7958 13.8101 98.7616 15.6921Z" fill="url(#paint0_linear_25_464)"/>
<path d="M72.0245 0.915734L37.8971 7.71891C37.6244 7.77326 37.3772 7.91826 37.1943 8.13111C37.0115 8.34396 36.9034 8.61259 36.8869 8.89478L34.7877 44.9651C34.7762 45.1629 34.8101 45.3608 34.8869 45.5429C34.9636 45.7251 35.081 45.8865 35.2298 46.0145C35.3786 46.1424 35.5546 46.2333 35.744 46.2799C35.9333 46.3265 36.1307 46.3276 36.3205 46.283L45.8222 44.0522C46.7111 43.8435 47.5146 44.6401 47.3316 45.5495L44.5088 59.6128C44.3189 60.5592 45.1922 61.3684 46.1006 61.0875L51.9695 59.2737C52.8792 58.9928 53.7535 59.8043 53.561 60.7516L49.075 82.8414C48.7943 84.2233 50.6009 84.9766 51.354 83.7922L51.8576 83.001L79.6666 26.5406C80.1325 25.5953 79.3291 24.5174 78.3091 24.7179L68.5282 26.6381C67.6094 26.8184 66.8274 25.9476 67.0867 25.0331L73.4702 2.52036C73.7298 1.60354 72.9448 0.73237 72.0248 0.915734H72.0245Z" fill="url(#paint1_linear_25_464)"/>
<defs>
<linearGradient id="paint0_linear_25_464" x1="0.100703" y1="18.6959" x2="50.9511" y2="86.5786" gradientUnits="userSpaceOnUse">
<stop stop-color="#41D1FF"/>
<stop offset="1" stop-color="#BD34FE"/>
</linearGradient>
<linearGradient id="paint1_linear_25_464" x1="54.312" y1="2.76293" x2="64.8938" y2="74.1152" gradientUnits="userSpaceOnUse">
<stop stop-color="#FFEA83"/>
<stop offset="0.083" stop-color="#FFDD35"/>
<stop offset="1" stop-color="#FFA800"/>
</linearGradient>
</defs>
</svg>
