<svg width="101" height="100" viewBox="0 0 101 100" fill="none" xmlns="http://www.w3.org/2000/svg">
<path d="M1.60815 35.3304C1.60815 35.3304 -0.827478 33.5747 2.09527 31.2304L8.90487 25.1414C8.90487 25.1414 10.8534 23.0914 12.9135 24.8775L75.7526 72.4534V95.2671C75.7526 95.2671 75.7222 98.8495 71.1249 98.4537L1.60815 35.3304Z" fill="#2489CA"/>
<path d="M17.8051 50.0359L1.60815 64.7613C1.60815 64.7613 -0.0561979 65.9994 1.60815 68.2117L9.12815 75.0518C9.12815 75.0518 10.9143 76.9698 13.5529 74.7879L30.7241 61.7675L17.8051 50.0359Z" fill="#1070B3"/>
<path d="M46.2411 50.1576L75.9456 27.4757L75.7528 4.78377C75.7528 4.78377 74.4842 -0.168684 70.2523 2.40903L30.7241 38.3853L46.2411 50.1576Z" fill="#0877B9"/>
<path d="M71.1251 98.4844C72.8503 100.25 74.9409 99.6718 74.9409 99.6718L98.0895 88.2649C101.053 86.2454 100.637 83.7387 100.637 83.7387V15.6222C100.637 12.6284 97.5719 11.5933 97.5719 11.5933L77.5085 1.92182C73.1243 -0.787823 70.2523 2.40894 70.2523 2.40894C70.2523 2.40894 73.9464 -0.249955 75.7528 4.78368V94.8512C75.7528 95.4703 75.6208 96.0792 75.357 96.6272C74.8293 97.6928 73.6825 98.6874 70.9323 98.2713L71.1251 98.4844Z" fill="#3C99D4"/>
</svg>
