<svg width="101" height="96" viewBox="0 0 101 96" fill="none" xmlns="http://www.w3.org/2000/svg">
<path d="M6.51416 66.1083C6.60999 66.325 6.71832 66.525 6.83499 66.725C6.88916 66.8416 6.96416 66.9625 7.03083 67.0708C7.13916 67.2875 7.25583 67.4958 7.36833 67.7042L8.02251 68.8042C8.14334 69.0083 8.26001 69.2083 8.39751 69.4083C8.62668 69.8 8.89751 70.1833 9.13502 70.575C9.24335 70.7375 9.34335 70.9 9.46419 71.0625C9.92253 71.775 10.3392 72.3667 10.785 72.9417C11.1017 73.3709 11.4184 73.7917 11.76 74.2126C11.8725 74.3709 11.9975 74.5292 12.1142 74.6876L13.0351 75.8042C13.1476 75.9334 13.2601 76.0834 13.3809 76.2167C13.7892 76.7084 14.2226 77.1834 14.6559 77.6668C14.6559 77.6751 14.6684 77.6834 14.6767 77.6959C15.2142 78.3709 15.7934 78.9709 16.4268 79.5043L16.4434 79.5209C16.7768 79.8626 17.1101 80.2001 17.4643 80.5334L17.8851 80.9376C18.3476 81.3709 18.8101 81.8001 19.2976 82.2168C19.306 82.2168 19.3101 82.2251 19.3185 82.2293L19.556 82.4376C19.981 82.8085 20.4101 83.1751 20.8476 83.5168L21.3685 83.9543C21.7227 84.2376 22.0893 84.5043 22.4518 84.7835L23.0185 85.2168C23.406 85.5085 23.8185 85.7918 24.2143 86.0752C24.3602 86.1793 24.506 86.2835 24.656 86.3793L24.7769 86.4752L25.9477 87.2418L26.4477 87.5752C27.0602 87.9668 27.6685 88.3335 28.2769 88.7002C28.4519 88.7877 28.6269 88.8835 28.7894 88.9835C29.2394 89.2419 29.7061 89.5044 30.1602 89.7419C30.4102 89.8835 30.6686 90.0044 30.9269 90.1335C31.2394 90.3085 31.5644 90.4794 31.8978 90.6544C31.9894 90.6835 32.0644 90.7127 32.1394 90.7544L32.1561 90.7377C32.2936 90.8002 32.4228 90.8669 32.5561 90.9335C33.0561 91.1835 33.5769 91.421 34.1186 91.6544C34.2186 91.696 34.327 91.7377 34.4353 91.796C35.0353 92.0585 35.6353 92.3085 36.2561 92.5502C36.3978 92.5919 36.5478 92.6627 36.6936 92.7169C37.2562 92.9294 37.8353 93.1461 38.4103 93.3502L38.6187 93.4252C39.2562 93.6419 39.8853 93.8502 40.5354 94.0461C40.6854 94.0877 40.8395 94.1419 40.9979 94.1836C41.6604 94.3836 42.302 94.6211 42.9729 94.7461C85.7775 102.509 98.2151 69.1375 98.2151 69.1375C87.765 82.6793 69.219 86.2502 51.6563 82.2751C51.0063 82.1251 50.3563 81.9168 49.698 81.7251C48.7687 81.4621 47.8475 81.1717 46.9354 80.8543L47.3313 80.9751L47.0729 80.8751C46.5063 80.6834 45.9604 80.4709 45.4062 80.2584C45.2706 80.2009 45.133 80.1481 44.9937 80.1001L44.9479 80.0876C44.3354 79.8418 43.7396 79.5918 43.1479 79.3293C43.0187 79.2876 42.9104 79.2293 42.7812 79.1793C42.0804 78.8738 41.3858 78.5543 40.6979 78.2209L41.2729 78.4751C41.1228 78.4088 40.9755 78.3365 40.8312 78.2584C40.4395 78.0751 40.0479 77.8668 39.6645 77.6709C39.3726 77.5326 39.0849 77.3853 38.802 77.2292L38.8853 77.2709C38.4145 77.0209 37.9437 76.7501 37.4687 76.4959C37.327 76.3959 37.1645 76.3126 37.002 76.2209C36.2959 75.8105 35.5986 75.3854 34.9103 74.9459L35.1728 75.1042C34.9964 74.9953 34.8241 74.8799 34.6561 74.7584L34.6811 74.7751C34.2333 74.5 33.7942 74.211 33.3644 73.9084C33.2228 73.8167 33.0936 73.7167 32.9478 73.6167C32.4988 73.3103 32.0571 72.9935 31.6228 72.6667L31.7228 72.7375C31.5478 72.5959 31.3603 72.4625 31.1728 72.325C30.8061 72.0375 30.4352 71.7625 30.0686 71.4625L29.5769 71.0709C29.0529 70.6539 28.5389 70.2247 28.0352 69.7833L28.0311 69.7792L26.5852 68.4667L26.1685 68.075C25.8269 67.7292 25.4769 67.4 25.1269 67.0583L24.7227 66.6417C24.2913 66.2144 23.8703 65.7768 23.4602 65.3291L23.4352 65.3L23.3643 65.2416C22.9232 64.7571 22.4884 64.2668 22.0602 63.7708C21.9477 63.6416 21.8435 63.5041 21.7268 63.3666L20.781 62.2208C20.3546 61.6852 19.9379 61.1421 19.531 60.5916L19.3643 60.3583C9.62252 47.1248 6.09748 28.8621 13.8934 13.8787L7.00999 22.5829C-1.84427 35.2455 -0.748422 51.7123 6.02248 65.1583C6.17665 65.4875 6.34749 65.7958 6.51416 66.1083Z" fill="#1266A9"/>
<path d="M36.3353 47.8667L36.2894 47.8L36.2519 47.75L36.3353 47.8667Z" fill="black"/>
<path d="M40.9937 53.3331L41.3687 53.7081C41.8437 54.1665 42.3312 54.6123 42.827 55.0581L42.8895 55.1123C43.3895 55.554 43.952 56.0165 44.5312 56.4665L44.6187 56.5332C44.7604 56.629 44.8812 56.7415 45.0187 56.8373C45.602 57.2873 46.1895 57.7165 46.802 58.1457L46.8645 58.1832C47.1229 58.3707 47.3979 58.5415 47.6896 58.7248C47.8062 58.7998 47.9396 58.8998 48.0646 58.9748C48.5062 59.2582 48.9396 59.5207 49.3854 59.7915C49.4562 59.8207 49.5187 59.8582 49.5854 59.8874C49.9604 60.1165 50.3687 60.3374 50.7604 60.5374C50.8979 60.6207 51.0312 60.6832 51.1729 60.7624C51.4521 60.8999 51.7271 61.0457 51.9938 61.1874L52.1271 61.2457C52.6896 61.5207 53.2646 61.779 53.8271 62.0332C53.9688 62.0874 54.0896 62.1332 54.2104 62.1915C54.673 62.3915 55.1438 62.5832 55.6063 62.7582C55.8146 62.8291 56.0105 62.9124 56.2063 62.9749C56.6313 63.1332 57.0771 63.2791 57.498 63.4249L58.0813 63.6124C58.6897 63.7999 59.3063 64.0457 59.9522 64.1457C93.0067 69.5875 100.657 44.2664 100.657 44.2664C93.7692 54.129 80.4399 58.829 66.2356 55.1581C65.5265 54.9793 64.8234 54.7778 64.1272 54.554L64.3647 54.6206C64.1647 54.5665 63.9897 54.504 63.798 54.4456C63.3647 54.2956 62.9189 54.1498 62.498 53.9956L61.898 53.7706C61.4314 53.5831 60.9563 53.4081 60.5022 53.2081C60.3605 53.1456 60.2313 53.104 60.123 53.0415C59.5397 52.7789 58.9522 52.5206 58.3813 52.2456L57.523 51.7998L57.0271 51.5498C56.6438 51.3498 56.2896 51.1414 55.923 50.9289C55.8295 50.885 55.739 50.8349 55.6521 50.7789L55.6646 50.7831C55.223 50.5081 54.7646 50.2414 54.3396 49.9623C54.1979 49.8831 54.0688 49.7873 53.9354 49.7039L53.0688 49.1414C52.4688 48.7247 51.8813 48.2789 51.2854 47.8456C51.1521 47.7247 51.0229 47.6247 50.8937 47.5164C44.6479 42.6288 39.7228 35.9496 37.3853 28.387C34.9228 20.5245 35.4644 11.7077 39.7186 4.55347L34.4894 11.9202C28.0685 21.0911 28.431 33.3496 33.4311 43.0497C34.3436 44.8414 35.2686 46.3539 36.2894 47.7956C37.2395 49.1539 38.2895 50.7456 39.5561 51.8373C40.0061 52.3498 40.4895 52.8373 40.9937 53.3331Z" fill="#1266A9"/>
<path d="M10.8059 72.9667L10.7892 72.9417L10.76 72.9042L10.8059 72.9667ZM28.131 69.8667L28.1727 69.8959L28.181 69.9084L28.131 69.8667Z" fill="black"/>
<path d="M57.598 3.94506C53.8105 9.47428 53.448 16.341 56.0563 22.4369C58.8272 28.912 64.4897 33.9954 71.0898 36.4037C71.3607 36.5079 71.6232 36.5954 71.9023 36.6954L72.269 36.8079C72.6523 36.9287 73.0398 37.0704 73.4357 37.1579C91.69 40.6621 96.6318 27.8328 97.961 25.9453C93.6151 32.1537 86.3275 33.6454 77.3857 31.4828C76.6082 31.2932 75.8429 31.0567 75.094 30.7745L75.2315 30.8203C74.2997 30.4978 73.3871 30.1222 72.4982 29.6953L72.6565 29.7661C70.9482 28.9328 69.4815 28.0328 68.119 26.9995C60.1272 20.9577 55.1855 9.45345 60.4022 0.0825195L57.598 3.94506Z" fill="#1266A9"/>
</svg>
