<svg width="89" height="101" viewBox="0 0 89 101" fill="none" xmlns="http://www.w3.org/2000/svg">
<path d="M88.8798 30.0078C88.8791 28.3309 88.5204 26.8491 87.7952 25.5773C87.0827 24.3268 86.0158 23.2786 84.5847 22.4499C72.7717 15.6384 60.9472 8.84778 49.1379 2.02937C45.9542 0.191359 42.8674 0.258366 39.7073 2.12276C35.0053 4.89574 11.4643 18.3829 4.44933 22.4461C1.56038 24.1185 0.154622 26.6779 0.153927 30.0047C0.149414 43.7029 0.153927 57.4009 0.149414 71.0995C0.150108 72.7396 0.493477 74.1926 1.18681 75.4452C1.89959 76.7336 2.98142 77.8106 4.44551 78.6581C11.4608 82.7212 35.005 96.2073 39.7059 98.981C42.8674 100.846 45.9542 100.913 49.139 99.0744C60.9485 92.2557 72.7737 85.4654 84.5885 78.6539C86.0526 77.8068 87.1345 76.7291 87.8472 75.4417C88.5395 74.1891 88.8836 72.7361 88.8843 71.0956C88.8843 71.0956 88.8843 43.7064 88.8798 30.0078" fill="#5C8DBC"/>
<path d="M44.6526 50.4187L1.18677 75.4454C1.89954 76.7338 2.98138 77.8108 4.44547 78.6582C11.4608 82.7214 35.0049 96.2075 39.7059 98.9812C42.8674 100.847 45.9542 100.913 49.139 99.0746C60.9486 92.2558 72.7738 85.4655 84.5886 78.6541C86.0527 77.8069 87.1345 76.7293 87.8473 75.4419L44.6526 50.4187" fill="#1A4674"/>
<path d="M31.7786 57.8318C34.3078 62.2473 39.0626 65.2254 44.5169 65.2254C50.0049 65.2254 54.7867 62.2094 57.3031 57.7467L44.6526 50.4187L31.7786 57.8318" fill="#1A4674"/>
<path d="M88.8798 30.0079C88.8791 28.3309 88.5204 26.8491 87.7951 25.5774L44.6526 50.4187L87.8472 75.4419C88.5395 74.1893 88.8836 72.7363 88.8843 71.0958C88.8843 71.0958 88.8843 43.7065 88.8798 30.0079" fill="#1B598E"/>
<path d="M86.5046 52.2074H83.1293V55.5834H79.7532V52.2074H76.3783V48.8324H79.7532V45.457H83.1293V48.8324H86.5046V52.2074ZM74.1882 52.2074H70.8132V55.5834H67.4378V52.2074H64.0625V48.8324H67.4378V45.457H70.8132V48.8324H74.1882V52.2074Z" fill="white"/>
<path d="M57.3031 57.7467C54.7867 62.2094 50.0049 65.2254 44.5169 65.2254C39.0626 65.2254 34.3078 62.2473 31.7786 57.8317C30.508 55.6161 29.8407 53.106 29.8433 50.5519C29.8433 42.4482 36.4132 35.8787 44.5169 35.8787C49.9361 35.8787 54.6659 38.8197 57.2076 43.1901L70.0331 35.8048C64.9353 27.005 55.4179 21.0847 44.5169 21.0847C28.2421 21.0847 15.0493 34.2778 15.0493 50.5519C15.0493 55.891 16.4697 60.8977 18.9521 65.2164C24.037 74.0627 33.5815 80.0194 44.5169 80.0194C55.4724 80.0194 65.0318 74.0388 70.1095 65.1664L57.3031 57.7467Z" fill="white"/>
</svg>
