<svg width="101" height="57" viewBox="0 0 101 57" fill="none" xmlns="http://www.w3.org/2000/svg">
<path d="M73.7738 42.5163C71.4777 42.5163 69.61 40.6471 69.61 38.351C69.61 36.055 71.4777 34.1873 73.7738 34.1873C76.0702 34.1873 77.9379 36.0546 77.9379 38.351C77.9379 40.6474 76.0702 42.5163 73.7738 42.5163ZM27.7485 42.5163C25.4524 42.5163 23.5847 40.6471 23.5847 38.351C23.5847 36.055 25.452 34.1873 27.7485 34.1873C30.0445 34.1873 31.9122 36.0546 31.9122 38.351C31.9122 40.6474 30.0449 42.5163 27.7485 42.5163ZM75.2672 17.4332L83.5894 3.01973C83.8185 2.62196 83.8804 2.14955 83.7616 1.70617C83.6428 1.26278 83.3529 0.884643 82.9556 0.654711C82.5578 0.425733 82.0855 0.363861 81.6421 0.482665C81.1988 0.601469 80.8206 0.891248 80.5906 1.28846L72.1644 15.8841C65.7203 12.9436 58.4834 11.3053 50.7611 11.3053C43.0388 11.3053 35.802 12.9436 29.3582 15.8841L20.9316 1.28846C20.7016 0.891248 20.3235 0.601469 19.8801 0.482665C19.4368 0.363861 18.9644 0.425733 18.5666 0.654711C18.1691 0.884427 17.879 1.26257 17.7602 1.70604C17.6414 2.14952 17.7035 2.62203 17.9328 3.01973L26.255 17.4332C11.9647 25.2054 2.19094 39.6726 0.761108 56.7647H100.761C99.3301 39.673 89.5564 25.2054 75.2672 17.4328" fill="#3DDB85"/>
</svg>
